<svg width="141" height="132" viewBox="0 0 141 132" fill="none" xmlns="http://www.w3.org/2000/svg">
<path d="M53.4338 31.121L55.8513 23.191C56.4122 21.359 57.6759 19.8238 59.3659 18.9212C61.056 18.0187 63.0347 17.8223 64.8692 18.3752L101.025 28.044C101.359 28.146 101.684 28.2714 102 28.4193C103.568 29.1659 104.817 30.4494 105.521 32.0374C106.225 33.6254 106.337 35.413 105.836 37.0763L105.825 37.1017L102.705 46.1409L95.5909 43.9728L97.9369 36.2711L63.4677 26.9564L60.4744 33.2675L53.4338 31.121ZM100.584 29.5163L64.4339 19.8501C62.988 19.4099 61.4265 19.5616 60.0923 20.2718C58.7582 20.982 57.7604 22.1927 57.3182 23.638L55.3492 30.0948L59.6502 31.405L62.1104 26.2359C62.2239 25.9235 62.452 25.6659 62.7484 25.5154C63.0447 25.365 63.3873 25.3329 63.7065 25.4257L98.6103 34.8582C98.7749 34.908 98.928 34.9898 99.0609 35.099C99.1938 35.2082 99.3038 35.3425 99.3846 35.4943C99.4654 35.6461 99.5154 35.8124 99.5317 35.9835C99.5481 36.1547 99.5305 36.3275 99.4799 36.4918L97.5108 42.9486L101.737 44.2366L104.369 36.6124C104.758 35.3042 104.668 33.8998 104.113 32.6525C103.559 31.4052 102.577 30.397 101.345 29.81C101.098 29.6944 100.844 29.5963 100.584 29.5163Z" fill="#333333"/>
<path d="M56.2262 81.1931C54.6756 80.4651 53.4432 79.1871 52.7468 77.5852C52.0505 75.9834 51.9351 74.1608 52.4212 72.4401L53.1411 69.8727C53.6891 67.9095 54.8424 66.1651 56.4238 64.9075C58.1225 63.5952 60.0779 63.1449 61.9312 63.6375L61.9671 63.6535L74.5575 67.719C74.9572 67.8272 75.3464 67.9698 75.7211 68.1451C77.271 68.873 78.5031 70.1503 79.1997 71.7513C79.8962 73.3524 80.0124 75.1741 79.5276 76.8945L78.8077 79.4619C77.6669 83.5308 74.3551 87.2953 70.4638 86.2596L70.406 86.2426L57.38 81.6163C56.9835 81.509 56.5976 81.3674 56.2262 81.1931ZM61.4782 65.1857C60.0986 64.8259 58.6272 65.1768 57.333 66.1781C56.0326 67.2154 55.0852 68.6528 54.6364 70.2695L53.916 72.8381C53.7026 73.5943 53.635 74.3816 53.717 75.1548C53.7991 75.928 54.0292 76.6719 54.3942 77.3439C54.7592 78.0158 55.2519 78.6025 55.8439 79.0704C56.436 79.5383 57.1158 79.8781 57.8444 80.0703L57.9016 80.0886L70.9265 84.7143C73.8363 85.4646 76.3863 82.3691 77.313 79.0639L78.0329 76.4965C78.2465 75.7402 78.3142 74.9529 78.2323 74.1795C78.1503 73.4062 77.9203 72.6622 77.5553 71.9901C77.1904 71.3181 76.6977 70.7312 76.1056 70.2632C75.5135 69.7952 74.8336 69.4553 74.105 69.263L74.069 69.247L61.4782 65.1857Z" fill="#333333"/>
<path d="M21.9085 42.9328L20.9922 44.1753L54.5041 68.8891L55.4204 67.6467L21.9085 42.9328Z" fill="#333333"/>
<path d="M122.005 70.4958L122.145 72.0332L79.5205 75.9105L79.3806 74.3731L122.005 70.4958Z" fill="#333333"/>
<path d="M59.5019 79.0284C58.4225 78.5227 57.5589 77.6466 57.0639 76.5551C56.569 75.4636 56.4746 74.2272 56.7974 73.0646L57.2529 71.4132C57.6136 70.0978 58.3917 68.9343 59.4676 68.1015C60.6383 67.2209 61.9986 66.9302 63.2977 67.2826L63.3317 67.2978L71.6546 70.0162C71.9302 70.0925 72.1989 70.1916 72.4579 70.3127C73.5369 70.8189 74.4001 71.6952 74.8947 72.7868C75.3893 73.8783 75.4835 75.1147 75.1606 76.2772L74.7064 77.9291C74.3355 79.2782 73.6034 80.5349 72.7018 81.3731C71.5899 82.4053 70.2607 82.7787 68.9594 82.4252L68.903 82.4083L60.2918 79.3272C60.0205 79.2501 59.7562 79.1501 59.5019 79.0284ZM62.8742 68.7528C61.804 68.4694 60.9201 68.9052 60.3659 69.3216C59.5609 69.9484 58.9798 70.8224 58.7118 71.8095L58.2564 73.4609C58.03 74.2763 58.0962 75.1434 58.4431 75.9089C58.79 76.6745 59.3953 77.2892 60.1521 77.6443C60.3384 77.7316 60.5318 77.8027 60.7303 77.8569L60.7867 77.8738L69.3951 80.955C70.1898 81.1609 70.9606 80.9238 71.6848 80.2515C72.3836 79.5995 72.9525 78.6142 73.2517 77.5292L73.7078 75.8671C73.8345 75.4119 73.8709 74.9369 73.815 74.4692C73.7591 74.0015 73.612 73.5504 73.3821 73.1419C73.1522 72.7333 72.844 72.3754 72.4754 72.0887C72.1067 71.802 71.6848 71.5921 71.2339 71.4711L71.1999 71.4559L62.8742 68.7528Z" fill="#333333"/>
<path fill-rule="evenodd" clip-rule="evenodd" d="M111.267 110.283L111.324 110.308L119.926 81.4624L119.968 81.3828L126.866 59.5147C127.356 57.9045 127.27 56.1738 126.623 54.6201C125.975 53.0665 124.806 51.787 123.318 51.0017C122.911 50.7886 122.485 50.6139 122.046 50.4799L34.1818 24.7674C32.3482 24.2075 30.3674 24.3985 28.6745 25.2983C26.9817 26.1981 25.7153 27.7331 25.1535 29.5661L8.23975 82.2312L8.22584 82.2624C7.13342 85.855 11.0159 90.4386 14.2602 92.1631C14.6958 92.3756 15.1438 92.5616 15.6018 92.7202L101.531 117.309C103.368 117.866 105.35 117.671 107.044 116.769C108.737 115.866 110.004 114.329 110.566 112.494L111.267 110.283ZM110.355 108.376L116.258 88.4448L115.938 89.0527L125.398 59.0576C125.782 57.7907 125.713 56.4295 125.203 55.2078C124.693 53.9861 123.774 52.9801 122.602 52.3627C122.283 52.1962 121.95 52.0597 121.605 51.9551L33.7411 26.2482C33.0242 26.0291 32.2711 25.9534 31.5248 26.0254C30.7786 26.0975 30.0539 26.3159 29.3922 26.6681C28.7304 27.0203 28.1445 27.4995 27.6679 28.0783C27.1914 28.657 26.8336 29.324 26.6149 30.0411L26.6108 30.0503L9.69402 82.7251C8.9281 85.2635 11.9652 89.2014 14.9729 90.8203C15.3195 90.9863 15.6756 91.1318 16.0393 91.256L101.986 115.81C102.702 116.031 103.454 116.109 104.199 116.038C104.945 115.968 105.669 115.751 106.33 115.401C106.992 115.05 107.578 114.572 108.054 113.994C108.53 113.416 108.888 112.75 109.106 112.034L110.273 108.333L110.355 108.376Z" fill="#333333"/>
</svg>
