<svg width="112" height="114" viewBox="0 0 112 114" fill="none" xmlns="http://www.w3.org/2000/svg">
<path d="M73.5927 109.521L2.17328 81.5443L36.37 4.10813L110.872 26.3223L73.5927 109.521ZM5.45997 80.1631L72.2547 106.299L107.47 27.9224L37.8075 7.13584L5.45997 80.1631Z" fill="#333333"/>
<path d="M42.9552 24.7412C41.204 24.2372 40.2513 22.1859 40.8328 20.1659C41.4143 18.1458 43.3118 16.915 45.0629 17.4191C46.8141 17.9231 47.7661 19.9765 47.1852 21.9944C46.6043 24.0124 44.7084 25.2459 42.9552 24.7412ZM44.3717 19.8202C44.0054 19.7148 43.4419 20.135 43.231 20.8676C43.0201 21.6003 43.277 22.2452 43.6433 22.3506C44.0096 22.4561 44.5752 22.0365 44.7831 21.3144C44.9909 20.5924 44.7383 19.9327 44.3699 19.8266L44.3717 19.8202Z" fill="#333333"/>
<path d="M34.4506 43.4544C32.6974 42.9497 31.7475 40.897 32.3289 38.8769C32.9104 36.8568 34.8079 35.626 36.559 36.1301C38.3101 36.6342 39.2622 38.6875 38.6813 40.7055C38.1004 42.7234 36.2018 43.9585 34.4506 43.4544ZM35.8678 38.5313C35.5015 38.4259 34.9353 38.8476 34.725 39.5781C34.5147 40.3086 34.77 40.9668 35.1364 41.0723C35.5027 41.1777 36.0689 40.756 36.2792 40.0255C36.4895 39.295 36.2341 38.6368 35.8678 38.5313Z" fill="#333333"/>
<path d="M27.8614 59.74C27.2126 59.5682 26.6296 59.2072 26.1869 58.7027C25.7442 58.1983 25.4618 57.5734 25.3757 56.9078C25.2896 56.2422 25.4038 55.5661 25.7036 54.9656C26.0034 54.3651 26.4753 53.8676 27.059 53.5365C27.6428 53.2053 28.312 53.0556 28.9812 53.1063C29.6504 53.1571 30.2894 53.4061 30.8165 53.8215C31.3436 54.2369 31.7351 54.7999 31.9409 55.4388C32.1467 56.0776 32.1575 56.7632 31.972 57.4082C31.7349 58.2617 31.169 58.9864 30.3985 59.4235C29.628 59.8606 28.7157 59.9744 27.8614 59.74ZM29.039 55.649C28.8733 55.5857 28.6924 55.5738 28.5199 55.6149C28.3473 55.656 28.1912 55.7482 28.0719 55.8794C27.9526 56.0107 27.8756 56.1749 27.8512 56.3506C27.8267 56.5263 27.8558 56.7053 27.9346 56.8641C28.0135 57.023 28.1385 57.1544 28.2932 57.2411C28.448 57.3278 28.6252 57.3658 28.8019 57.3502C28.9786 57.3345 29.1465 57.2659 29.2835 57.1533C29.4206 57.0407 29.5205 56.8894 29.5702 56.7191C29.6413 56.5068 29.6253 56.2749 29.5257 56.0743C29.4261 55.8738 29.2511 55.7208 29.039 55.649Z" fill="#333333"/>
<path d="M19.9903 75.1302C19.3415 74.9585 18.7586 74.5974 18.3158 74.093C17.8731 73.5886 17.5907 72.9637 17.5046 72.2981C17.4185 71.6325 17.5327 70.9563 17.8325 70.3559C18.1323 69.7554 18.6042 69.2579 19.1879 68.9267C19.7717 68.5956 20.4409 68.4458 21.1101 68.4966C21.7793 68.5474 22.4183 68.7963 22.9454 69.2118C23.4726 69.6272 23.864 70.1902 24.0698 70.829C24.2756 71.4678 24.2864 72.1535 24.1009 72.7985C23.8638 73.652 23.298 74.3767 22.5274 74.8138C21.7569 75.2509 20.8446 75.3647 19.9903 75.1302ZM21.1679 71.0393C21.0023 70.9759 20.8213 70.964 20.6488 71.0051C20.4762 71.0462 20.3201 71.1384 20.2008 71.2697C20.0815 71.401 20.0046 71.5652 19.9801 71.7409C19.9556 71.9165 19.9847 72.0955 20.0635 72.2544C20.1424 72.4133 20.2674 72.5447 20.4221 72.6314C20.5769 72.7181 20.7541 72.7561 20.9308 72.7404C21.1075 72.7248 21.2754 72.6562 21.4124 72.5436C21.5495 72.431 21.6494 72.2797 21.6991 72.1094C21.7702 71.897 21.7542 71.6652 21.6546 71.4646C21.5551 71.264 21.38 71.1111 21.1679 71.0393Z" fill="#333333"/>
<path d="M51.794 25.0914C57.4262 28.7763 64.4134 29.3935 70.7684 31.0394C78.7195 33.0989 86.6571 35.3402 94.5553 37.5909C95.8647 37.9678 96.4876 35.8037 95.1776 35.4289C87.4107 33.2161 79.6002 31.2223 71.8424 29.0075C65.5465 27.2089 58.5507 26.846 52.931 23.1624C51.7816 22.4097 50.6525 24.3409 51.792 25.0908L51.794 25.0914Z" fill="#333333"/>
<path d="M35.6891 60.5716L67.2905 69.6683C70.7605 70.6671 74.4311 71.428 77.7199 72.9594C78.9289 73.5229 80.0717 71.6048 78.851 71.0379C75.6549 69.5469 72.1644 68.7829 68.785 67.8102L36.2915 58.4566C35.3068 58.1732 34.6973 60.2907 35.682 60.5741L35.6891 60.5716Z" fill="#333333"/>
<path d="M42.9211 44.1369C49.9 46.1734 56.5388 49.3157 63.3213 51.8986C70.0374 54.4556 76.814 56.1082 84.0168 58.1816C85.2199 58.5279 85.8416 56.3681 84.6385 56.0218C77.4357 53.9484 70.6704 52.2715 63.943 49.7388C57.1492 47.1801 50.5517 44.0222 43.5709 41.9852C42.2494 41.6048 41.6029 43.7529 42.9211 44.1369Z" fill="#333333"/>
<path d="M28.06 76.0308L59.4866 85.0772C62.9373 86.0706 66.5881 86.8257 69.8579 88.3516C71.0598 88.9131 72.1997 86.9942 70.9859 86.4293C67.8084 84.9436 64.3368 84.1851 60.9762 83.2177L28.6624 73.9159C27.6832 73.634 27.0737 75.7515 28.0529 76.0334L28.06 76.0308Z" fill="#333333"/>
</svg>
