<svg width="309" height="196" viewBox="0 0 309 196" fill="none" xmlns="http://www.w3.org/2000/svg">
<path d="M215.831 58.2062C172.809 31.4804 100.697 63.7757 97.1946 94.7101C93.2829 129.258 133.072 136.871 145.431 107.095C159.772 72.5471 106.972 57.5543 65.2535 69.2878C39.8227 76.4403 3.97753 105.996 2.67524 148.162" stroke="#333333" stroke-width="2" stroke-linecap="round" stroke-dasharray="8 8"/>
<path d="M288.144 65.6272C289.995 58.2138 287.542 50.4787 280.851 42.645C271.191 31.3358 259.451 28.2101 248.667 34.0848C242.821 37.2704 237.682 42.9834 234.573 49.8008C231.375 56.8133 230.64 64.0825 232.467 70.2591C236.025 82.2191 233.066 95.4325 229.839 104.627L228.388 104.087C218.436 105.035 245.407 113.595 245.407 113.595C245.407 113.595 252.332 116.925 252.582 114.457C252.831 111.989 252.12 112.923 252.12 112.923L243.501 109.713C254.059 87.4863 260.963 75.1881 265.42 68.4091C267.51 69.9407 269.274 70.4677 270.767 70.0113C273.394 69.2082 274.142 65.5964 274.541 63.6563C274.602 63.3209 274.681 62.9887 274.776 62.6612C275.091 62.1148 275.127 60.546 274.55 59.5678C274.378 59.2644 274.123 59.0159 273.815 58.8513C273.508 58.6868 273.16 58.6127 272.812 58.6378C271.066 58.7299 268.487 61.2464 265.093 66.1569C264.745 65.8449 264.384 65.5109 264.012 65.1549C263.498 64.653 263.045 64.1767 262.652 63.7287C263.436 62.0136 263.633 59.5079 263.781 57.6452C263.819 57.1646 263.848 56.7599 263.888 56.4706C263.945 56.1032 263.867 55.7278 263.668 55.4134C263.47 55.0989 263.165 54.8666 262.81 54.759C261.671 54.3579 259.864 54.8416 258.924 56.3467C258.194 57.5137 257.629 59.9179 260.761 63.8802C260.648 63.9968 260.508 64.0841 260.354 64.1346C259.969 64.2511 258.803 64.1737 256.318 60.982C255.765 60.2793 255.248 59.5492 254.768 58.7944C254.956 58.6249 255.135 58.4444 255.302 58.254C256.83 56.5065 257.248 54.2219 256.364 52.4301C255.832 51.3548 254.867 50.6825 253.846 50.6842C253.392 50.6909 252.95 50.8272 252.572 51.0771C252.194 51.327 251.895 51.6799 251.712 52.0942C251.329 52.8793 250.845 54.8224 252.727 58.3423C252.254 58.5901 251.736 58.738 251.204 58.7768C250.672 58.8157 250.137 58.7447 249.634 58.5682C249.318 58.4548 249.027 58.2824 248.777 58.0602C249.581 51.4385 248.72 50.5335 248.291 50.0769C247.386 49.1215 246.558 48.789 245.833 49.0934C245.289 49.3224 244.657 49.998 244.723 51.9225C244.795 53.9579 245.654 56.8265 247.168 58.5975C246.586 62.9665 245.302 69.8619 242.696 80.7459C239.978 92.1535 236.884 103.33 235.904 106.88L232.083 105.458C235.435 95.9828 238.485 82.3027 234.711 69.6062C231.263 58.0135 238.313 42.3652 249.801 36.119C255.531 33.0052 266.959 29.9065 279.125 44.1512C285.289 51.3794 287.585 58.4182 285.935 65.0674C282.389 79.2699 262.016 87.434 261.811 87.5171L261.646 87.5823L261.508 87.6926C261.016 88.0894 250.973 96.399 248.694 111.638L250.936 112.399C252.893 98.6315 261.69 90.5908 262.839 89.59C265.045 88.6772 284.448 80.4103 288.144 65.6272ZM273.039 60.2057C273.437 60.3686 273.527 61.5695 273.42 61.9344C273.231 62.3885 273.101 62.8651 273.033 63.3525C272.695 64.9793 272.07 68.011 270.313 68.5468C269.31 68.8506 267.952 68.3707 266.277 67.1375C271.192 59.9212 272.778 60.0837 273.039 60.2057ZM246.499 53.6925C246.1 51.9823 246.235 50.8528 246.406 50.5507C246.693 50.6963 246.948 50.8984 247.154 51.1449C247.377 51.394 247.778 52.3857 247.417 56.2443C247.01 55.4308 246.703 54.5713 246.502 53.6843L246.499 53.6925ZM259.953 57.7493C260.054 57.3801 260.252 57.0447 260.526 56.7774C260.8 56.5102 261.14 56.3209 261.512 56.2291C261.764 56.1527 262.032 56.1471 262.287 56.2127L262.342 56.2301C262.339 56.2442 262.334 56.2579 262.329 56.2713C262.286 56.587 262.251 57.0201 262.214 57.5188C262.122 58.6741 261.953 60.8022 261.499 62.3378C259.788 59.9721 259.754 58.499 259.955 57.7411L259.953 57.7493ZM253.075 52.7662C253.147 52.5628 253.297 52.396 253.491 52.3026C253.686 52.2092 253.909 52.1967 254.113 52.2679C254.494 52.4287 254.799 52.73 254.964 53.1093C255.57 54.3385 255.243 55.9597 254.124 57.236C254.069 57.2942 254.014 57.3551 253.956 57.4124C252.797 55.1555 252.675 53.5879 253.078 52.758L253.075 52.7662ZM244.171 81.115C246.581 71.0479 247.888 64.3107 248.533 59.7778C248.721 59.8814 248.918 59.9682 249.121 60.0372C249.834 60.2807 250.59 60.3744 251.341 60.3124C252.091 60.2504 252.821 60.034 253.484 59.6768C253.928 60.3737 254.455 61.1213 255.079 61.9239C257.402 64.904 259.201 66.0707 260.774 65.6068C261.134 65.4955 261.462 65.3019 261.733 65.0413C262.092 65.4351 262.486 65.8424 262.917 66.2632C263.347 66.684 263.776 67.0793 264.205 67.4491C258.745 75.6648 251.338 89.6104 242.047 109.182L237.321 107.424C238.28 103.994 241.409 92.6625 244.174 81.1067L244.171 81.115Z" fill="#333333"/>
<path d="M251.525 116.883L227.796 108.048C217.844 108.995 244.812 117.554 244.812 117.554C244.812 117.554 251.74 120.885 251.989 118.417C252.239 115.949 251.525 116.883 251.525 116.883Z" fill="#333333"/>
<path d="M249.903 120.347L226.173 111.512C222.089 111.9 224.228 113.574 228.168 115.409C228.086 116.362 228.053 118.273 229.011 118.674C230.219 119.179 244.381 127.168 247.195 122.517C248.778 122.927 250.254 122.997 250.368 121.879C250.614 119.41 249.903 120.347 249.903 120.347Z" fill="#333333"/>
<path d="M249.999 23.9043C249.82 23.8415 249.655 23.7438 249.514 23.6169C245.935 20.4042 245.243 15.9357 244.564 11.6137C244.345 10.0159 244.042 8.43081 243.656 6.86508C243.599 6.68454 243.58 6.49437 243.599 6.30615C243.617 6.11792 243.674 5.93544 243.765 5.76972C243.857 5.604 243.98 5.45852 244.129 5.34189C244.278 5.22527 244.449 5.13996 244.632 5.09115C244.815 5.04233 245.006 5.03099 245.193 5.05782C245.38 5.08464 245.56 5.14907 245.722 5.24723C245.883 5.3454 246.024 5.47524 246.134 5.62899C246.244 5.78274 246.322 5.95719 246.363 6.14186C246.774 7.80431 247.097 9.48738 247.33 11.1839C247.95 15.1944 248.538 18.9831 251.372 21.5333C251.611 21.7495 251.768 22.0413 251.817 22.3597C251.866 22.6781 251.804 23.0036 251.641 23.2816C251.478 23.5597 251.225 23.7732 250.923 23.8863C250.622 23.9994 250.29 24.0052 249.985 23.9027L249.999 23.9043Z" fill="#333333"/>
<path d="M275.011 31.5521C274.723 31.4541 274.474 31.2649 274.303 31.0131C274.132 30.7614 274.047 30.4607 274.062 30.1565C274.363 23.9791 277.167 18.5486 281.942 14.8654C282.087 14.753 282.254 14.6704 282.432 14.6224C282.609 14.5744 282.795 14.5618 282.978 14.5855C283.16 14.6091 283.336 14.6684 283.496 14.7601C283.656 14.8518 283.796 14.9741 283.908 15.1199C284.02 15.2658 284.103 15.4323 284.151 15.61C284.199 15.7878 284.212 15.9732 284.188 16.1558C284.164 16.3384 284.105 16.5145 284.013 16.6742C283.921 16.8338 283.799 16.9738 283.653 17.0862C279.47 20.3048 277.122 24.8709 276.856 30.2919C276.849 30.4773 276.805 30.6593 276.727 30.8275C276.648 30.9958 276.538 31.1468 276.401 31.2719C276.264 31.397 276.103 31.4937 275.929 31.5563C275.754 31.619 275.569 31.6464 275.383 31.6369C275.256 31.6247 275.131 31.5962 275.011 31.5521Z" fill="#333333"/>
<path d="M289.977 46.6713C289.698 46.5771 289.455 46.3975 289.284 46.1579C289.113 45.9183 289.021 45.6309 289.023 45.3364C289.024 45.042 289.118 44.7554 289.291 44.5173C289.465 44.2792 289.708 44.1017 289.988 44.0099C293.779 42.7447 297.379 40.9691 300.691 38.732C300.998 38.5311 301.372 38.4586 301.732 38.5302C302.092 38.6017 302.409 38.8116 302.616 39.1147C302.823 39.4178 302.903 39.7899 302.839 40.1513C302.775 40.5127 302.571 40.8345 302.273 41.0476C298.742 43.4333 294.902 45.3271 290.86 46.6771C290.573 46.7708 290.263 46.7688 289.977 46.6713Z" fill="#333333"/>
<path d="M263.28 24.2232C263.033 24.1399 262.815 23.9896 262.649 23.7891C262.483 23.5886 262.377 23.3457 262.341 23.088C261.926 20.0582 262.528 15.8411 263.067 12.1385C263.189 11.2888 263.297 10.4649 263.409 9.7028C263.433 9.52049 263.492 9.34468 263.584 9.18536C263.676 9.02603 263.798 8.88626 263.944 8.77417C264.089 8.66209 264.256 8.57983 264.433 8.53205C264.611 8.48427 264.796 8.47192 264.978 8.49572C265.161 8.51952 265.337 8.579 265.496 8.67075C265.655 8.76251 265.795 8.88475 265.907 9.0305C266.019 9.17624 266.101 9.34264 266.149 9.52018C266.197 9.69773 266.209 9.88292 266.185 10.0652C266.086 10.8435 265.974 11.6812 265.84 12.542C265.322 16.073 264.75 20.0794 265.114 22.7209C265.164 23.0887 265.066 23.4614 264.842 23.7571C264.617 24.0529 264.285 24.2477 263.917 24.2989C263.702 24.3249 263.483 24.2989 263.28 24.2232Z" fill="#333333"/>
<path d="M282.752 38.363C282.547 38.2916 282.36 38.1743 282.206 38.0201C281.948 37.7541 281.805 37.3969 281.81 37.0264C281.814 36.6558 281.965 36.3021 282.23 36.0425C283.465 34.8183 284.8 33.3722 286.091 31.9724C287.382 30.5725 288.759 29.0821 290.042 27.8126C290.309 27.5672 290.661 27.4349 291.024 27.4435C291.386 27.4522 291.732 27.6012 291.987 27.8591C292.242 28.117 292.388 28.4638 292.392 28.8266C292.397 29.1895 292.262 29.5401 292.013 29.8048C290.776 31.0282 289.44 32.4742 288.149 33.8741C286.858 35.274 285.481 36.7643 284.199 38.0338C284.013 38.2186 283.778 38.3476 283.523 38.4058C283.267 38.464 283 38.4491 282.752 38.363Z" fill="#333333"/>
<path d="M240.444 29.8683C240.335 29.8312 240.23 29.7806 240.133 29.7178C237.24 27.8561 234.59 25.1831 232.258 21.777C232.154 21.6249 232.081 21.4539 232.043 21.2737C232.006 21.0935 232.004 20.9076 232.038 20.7266C232.072 20.5456 232.141 20.3732 232.242 20.2191C232.343 20.0649 232.473 19.9321 232.625 19.8282C232.777 19.7244 232.948 19.6514 233.128 19.6137C233.308 19.5759 233.494 19.574 233.675 19.608C233.856 19.6421 234.029 19.7115 234.183 19.8122C234.337 19.9129 234.47 20.043 234.573 20.1951C236.697 23.2872 239.077 25.7081 241.661 27.3693C241.946 27.5557 242.153 27.8392 242.244 28.167C242.335 28.4948 242.304 28.8444 242.156 29.1509C242.008 29.4573 241.754 29.6997 241.441 29.8328C241.128 29.966 240.778 29.9807 240.454 29.8745L240.444 29.8683Z" fill="#333333"/>
</svg>
