<svg width="100" height="93" viewBox="0 0 100 93" fill="none" xmlns="http://www.w3.org/2000/svg">
<path d="M7.0272 1.52795C7.31877 1.0589 7.17491 0.442298 6.70587 0.150722C6.23682 -0.140854 5.62022 0.00301117 5.32864 0.472055L7.0272 1.52795ZM26.678 59L26.3625 59.9489L26.678 59ZM73.1778 32L72.3853 32.6099L73.1778 32ZM41.7607 69.5L40.9243 70.048L41.7607 69.5ZM99.5047 84.5623C99.8153 84.1056 99.6968 83.4836 99.2401 83.1731L91.7978 78.1123C91.3411 77.8017 90.7191 77.9202 90.4085 78.3769C90.098 78.8336 90.2164 79.4556 90.6731 79.7661L97.2886 84.2646L92.7901 90.88C92.4795 91.3367 92.598 91.9587 93.0547 92.2693C93.5114 92.5798 94.1334 92.4613 94.4439 92.0046L99.5047 84.5623ZM5.32864 0.472055C-0.604084 10.0157 -1.46851 22.8356 2.16688 34.2503C5.80695 45.6797 14.0048 55.8405 26.3625 59.9489L26.9935 58.0511C15.3629 54.1844 7.56055 44.5952 4.07257 33.6434C0.57991 22.6768 1.45959 10.4843 7.0272 1.52795L5.32864 0.472055ZM26.3625 59.9489C42.411 65.2844 57.6243 62.7707 67.2152 56.6557C72.0083 53.5997 75.4608 49.5994 76.8286 45.1617C78.2094 40.6819 77.4249 35.879 73.9703 31.3901L72.3853 32.6099C75.4722 36.621 76.0938 40.7556 74.9173 44.5726C73.7278 48.4319 70.6593 52.0878 66.14 54.9693C57.1059 60.7293 42.5278 63.2156 26.9935 58.0511L26.3625 59.9489ZM73.9703 31.3901C70.0994 26.3602 64.7858 24.3877 59.3568 24.7631C53.9639 25.136 48.4945 27.8163 44.1516 32.0064C35.4353 40.416 31.1069 55.0636 40.9243 70.048L42.5972 68.952C33.3633 54.8581 37.4379 41.2629 45.5402 33.4457C49.6066 29.5224 54.6505 27.0933 59.4948 26.7583C64.303 26.4259 68.9508 28.147 72.3853 32.6099L73.9703 31.3901ZM40.9243 70.048C45.7952 77.4826 52.3425 82.7668 61.6983 85.4001C71.0127 88.0217 83.0406 87.9965 98.8649 84.9823L98.4907 83.0177C82.815 86.0035 71.1343 85.9783 62.2402 83.4749C53.3875 80.9832 47.2263 76.0174 42.5972 68.952L40.9243 70.048Z" fill="#333333"/>
</svg>
