<svg width="423" height="423" viewBox="0 0 423 423" fill="none" xmlns="http://www.w3.org/2000/svg">
<path d="M118.885 102.135C117.511 114.49 122.4 127.243 120.84 139.7C111.902 209.552 16.8762 132.287 51.7478 235.414C71.7458 294.348 116.523 358.711 179.845 375.195C215.143 384.509 257.879 373.511 276.817 342.344C288.505 323.285 290.647 298.906 305.261 282.001C319.875 265.097 345.553 258.189 356.695 238.46C361.143 229.311 363.596 219.321 363.891 209.152C366.158 192.802 364.83 176.154 359.999 160.37C354.375 144.934 341.611 131.149 325.409 128.484C317.135 126.944 308.736 128.616 300.614 127.356C261.237 121.653 250.036 62.2212 211.412 52.9042C194.856 48.9216 177.767 55.5061 161.982 62.0451C144.04 69.3959 123.86 79.2959 119.388 98.1736C119.127 99.4807 118.959 100.804 118.885 102.135Z" fill="#FFC73A"/>
<mask id="mask0_994_2788" style="mask-type:luminance" maskUnits="userSpaceOnUse" x="44" y="51" width="321" height="328">
<path d="M118.885 102.135C117.511 114.49 122.4 127.243 120.84 139.7C111.902 209.552 16.8762 132.287 51.7478 235.414C71.7458 294.348 116.523 358.711 179.845 375.195C215.143 384.509 257.879 373.511 276.817 342.344C288.505 323.285 290.647 298.906 305.261 282.001C319.875 265.097 345.553 258.189 356.695 238.46C361.143 229.311 363.596 219.321 363.891 209.152C366.158 192.802 364.83 176.154 359.999 160.37C354.375 144.934 341.611 131.149 325.409 128.484C317.135 126.944 308.736 128.616 300.614 127.356C261.237 121.653 250.036 62.2212 211.412 52.9042C194.856 48.9216 177.767 55.5061 161.982 62.0451C144.04 69.3959 123.86 79.2959 119.388 98.1736C119.127 99.4807 118.959 100.804 118.885 102.135Z" fill="white"/>
</mask>
<g mask="url(#mask0_994_2788)">
<path opacity="0.6" d="M77.3596 142.338C90.2367 146.204 103.8 147.225 117.111 145.332C130.422 143.44 143.163 138.677 154.452 131.374C197.926 102.746 209.317 43.9504 243.931 5.15479C255.228 -7.4044 271.693 -18.2437 287.533 -13.0243" stroke="white" stroke-width="4" stroke-miterlimit="10"/>
<path opacity="0.6" d="M380.889 43.6287C339.726 46.636 306.636 78.0133 280.595 109.904C254.555 141.796 230.824 177.93 194.518 197.517C169.105 211.354 139.501 215.382 110.741 217.077C74.1914 218.942 37.5483 216.58 1.54037 210.037" stroke="white" stroke-width="4" stroke-miterlimit="10"/>
<path opacity="0.6" d="M451.612 139.989C404.184 123.497 352.186 149.572 314.747 182.954C277.307 216.337 246.509 258.254 203.105 283.458C175.026 299.356 143.27 307.611 111.004 307.401C78.7381 307.191 47.0916 298.523 19.2225 282.261" stroke="white" stroke-width="4" stroke-miterlimit="10"/>
<path opacity="0.6" d="M384.645 248.27C348.291 251.561 315.798 272.155 287.649 295.401C259.501 318.646 233.773 345.228 202.577 364.209C171.381 383.189 132.48 393.792 98.0995 381.499C91.5506 379.02 84.2716 372.646 87.8945 366.864" stroke="white" stroke-width="4" stroke-miterlimit="10"/>
</g>
</svg>
