<svg width="135" height="247" viewBox="0 0 135 247" fill="none" xmlns="http://www.w3.org/2000/svg">
<path d="M-37.6091 235.969C5.03363 242.141 126.312 241.656 124.243 181.076C122.325 116.124 91.941 40.0653 27.0186 15.3607C0.672484 5.48864 -28.0796 3.99439 -55.3071 11.0822C-67.7707 14.3408 -83.2719 19.2244 -93.6692 27.102C-98.7369 30.9781 -100.939 37.0061 -105.786 40.4999C-112.054 45.0663 -120.968 44.7809 -126.546 50.548C-131.548 55.6717 -131.136 63.8081 -130.408 70.918C-123.696 133.249 -107.734 218.298 -37.6091 235.969ZM-56.5922 172.33C-68.9484 156.546 -82.1666 103.657 -68.5842 87.5213C-54.2433 70.5274 4.01638 64.3044 24.156 70.1025C37.876 74.0988 48.3657 85.7 54.3918 98.6703C60.4178 111.64 62.5997 126.017 64.7406 140.137C65.7231 146.782 66.7193 154.134 62.7951 159.662C60.9252 162.145 58.5906 164.24 55.9211 165.831C29.2981 183.351 -3.135 189.729 -34.4094 183.594C-42.7311 181.931 -51.3738 179.034 -56.5922 172.33Z" fill="#31C5B7"/>
<path d="M-29.9943 150.766C-35.7648 143.379 -41.9561 118.669 -35.5933 111.141C-28.8866 103.068 -1.66995 100.279 7.74835 102.969C10.908 104.089 13.7983 105.858 16.2337 108.162C18.6691 110.466 20.5956 113.253 21.8896 116.346C24.4011 122.545 26.0326 129.065 26.7366 135.717C27.5707 138.769 27.2428 142.022 25.8164 144.847C24.944 146.014 23.8468 146.995 22.5893 147.732C10.1517 155.935 -5.01058 158.925 -19.6312 156.057C-23.6022 155.573 -27.2736 153.699 -29.9943 150.766Z" fill="#31C5B7"/>
<mask id="mask0_994_3584" style="mask-type:luminance" maskUnits="userSpaceOnUse" x="-131" y="6" width="256" height="233">
<path d="M-37.6091 235.969C5.03363 242.141 126.312 241.656 124.243 181.076C122.325 116.124 91.941 40.0653 27.0186 15.3607C0.672484 5.48864 -28.0796 3.99439 -55.3071 11.0822C-67.7707 14.3408 -83.2719 19.2244 -93.6692 27.102C-98.7369 30.9781 -100.939 37.0061 -105.786 40.4999C-112.054 45.0663 -120.968 44.7809 -126.546 50.548C-131.548 55.6717 -131.136 63.8081 -130.408 70.918C-123.696 133.249 -107.734 218.298 -37.6091 235.969ZM-56.5922 172.33C-68.9484 156.546 -82.1666 103.657 -68.5842 87.5213C-54.2433 70.5274 4.01638 64.3044 24.156 70.1025C37.876 74.0988 48.3657 85.7 54.3918 98.6703C60.4178 111.64 62.5997 126.017 64.7406 140.137C65.7231 146.782 66.7193 154.134 62.7951 159.662C60.9252 162.145 58.5906 164.24 55.9211 165.831C29.2981 183.351 -3.135 189.729 -34.4094 183.594C-42.7311 181.931 -51.3738 179.034 -56.5922 172.33Z" fill="white"/>
</mask>
<g mask="url(#mask0_994_3584)">
<g style="mix-blend-mode:overlay" opacity="0.4">
<path d="M-51.3308 173.187C-46.0365 185.276 -38.684 196.356 -29.6007 205.931C17.725 258.455 93.5289 283.621 162.871 269.872" stroke="white" stroke-opacity="0.8" stroke-width="4" stroke-miterlimit="10"/>
</g>
<g style="mix-blend-mode:overlay" opacity="0.4">
<path d="M-15.3437 164.146C17.1675 187.34 54.3445 205.362 94.0073 210.336C133.67 215.31 176.086 206.092 206.619 180.272" stroke="white" stroke-opacity="0.8" stroke-width="4" stroke-miterlimit="10"/>
</g>
<g style="mix-blend-mode:overlay" opacity="0.4">
<path d="M55.642 150.864C71.49 151.456 86.1616 141.605 96.0945 129.262C106.593 115.741 112.882 99.43 114.177 82.3608C115.472 65.2916 111.716 48.2186 103.377 33.2688" stroke="white" stroke-opacity="0.8" stroke-width="4" stroke-miterlimit="10"/>
</g>
<g style="mix-blend-mode:overlay" opacity="0.4">
<path d="M35.8588 79.8847C38.3522 63.4452 39.243 46.4 34.5275 30.4567C30.1099 16.429 21.6501 4.01728 10.2083 -5.22273C-1.23342 -14.4627 -15.148 -20.1199 -29.7913 -21.4853" stroke="white" stroke-opacity="0.8" stroke-width="4" stroke-miterlimit="10"/>
</g>
<g style="mix-blend-mode:overlay" opacity="0.4">
<path d="M1.21148 75.6385C-13.7528 53.7568 -34.0433 36.0466 -57.7471 24.1777C-81.4509 12.3088 -107.787 6.67228 -134.272 7.79954C-146.151 8.40859 -159.268 11.2602 -165.995 21.0559" stroke="white" stroke-opacity="0.8" stroke-width="4" stroke-miterlimit="10"/>
</g>
</g>
</svg>
