<svg width="132" height="138" viewBox="0 0 132 138" fill="none" xmlns="http://www.w3.org/2000/svg">
<path d="M80.7732 137.916C61.6303 137.916 41.9735 128.336 29.1517 112.02C21.7911 102.737 18.46 91.6551 19.521 79.975C20.5572 68.5618 25.6955 57.3133 34.3756 47.447C40.9653 39.9628 49.367 34.9267 60.2234 32.052C69.8081 29.5117 80.0582 29.0718 87.9477 29.0339H89.4303V29.0521C101.76 29.3931 112.239 34.6121 120.008 44.1967C125.205 50.61 128.904 58.8158 130.716 67.9193C132.543 77.0904 132.418 87.0655 130.365 96.7638C127.846 107.798 123.069 116.9 116.15 123.85C109.86 130.171 101.776 134.582 92.7729 136.605C88.8334 137.482 84.8092 137.922 80.7732 137.916ZM88.4732 30.907C69.9399 30.9762 49.3506 33.2694 35.7842 48.6859C18.381 68.4547 16.3547 92.866 30.6245 110.859C43.0904 126.725 62.1855 136.043 80.7551 136.043C84.6586 136.05 88.5509 135.625 92.3611 134.776C110.99 130.592 123.827 116.949 128.522 96.3651C132.581 77.1744 128.851 58.1074 118.524 45.3745C110.932 36.009 100.549 31.0108 88.4732 30.907Z" fill="#333333"/>
<path d="M78.9083 118.358C66.6581 118.358 54.0802 112.233 45.881 101.796C41.1546 95.8378 39.0163 88.7227 39.6983 81.2204C40.3573 73.9059 43.6521 66.7018 49.2072 60.3873C53.4328 55.5851 58.8511 52.3545 65.8048 50.5127C71.9233 48.8917 78.414 48.61 83.5095 48.5869H84.4979V48.5985C92.2242 48.8159 99.1186 52.17 104.115 58.3363C110.952 66.771 113.405 79.3473 110.733 91.9813C109.123 99.0453 106.044 104.88 101.611 109.337C97.575 113.394 92.3857 116.224 86.6033 117.521C84.077 118.083 81.4963 118.364 78.9083 118.358ZM83.7829 50.4683C71.5443 50.5111 59.1163 51.974 50.6157 61.6327C39.6868 74.0509 38.4068 89.3635 47.3522 100.643C55.1988 110.628 67.2117 116.493 78.8901 116.495C81.3431 116.499 83.7891 116.231 86.1832 115.697C97.8633 113.07 105.922 104.503 108.868 91.576C111.421 79.5038 109.076 67.5123 102.591 59.5125C97.8402 53.6511 91.3396 50.5243 83.7829 50.4683Z" fill="#333333"/>
<path d="M77.5311 103.938C70.3616 103.938 63.0059 100.358 58.2136 94.2597C55.461 90.8516 54.1539 86.5004 54.5729 82.1397C54.9617 77.8466 56.8183 73.6226 60.0719 69.9258C65.3238 63.9573 73.1523 63.0397 80.0566 63.0067H80.7156C85.3184 63.1319 89.3727 65.1138 92.3248 68.7562C96.333 73.6984 97.7827 81.0623 96.2193 88.446C95.2753 92.5908 93.4714 96.0125 90.8685 98.6302C88.4458 101.042 85.3855 102.713 82.0467 103.447C80.5642 103.777 79.0498 103.942 77.5311 103.938ZM80.3317 64.8765C73.3846 64.9012 66.3288 65.7249 61.5513 71.1647C55.3982 78.1579 54.6668 86.7656 59.6881 93.0982C65.0603 99.9366 73.8772 103.358 81.6282 101.617C88.1915 100.134 92.7202 95.3222 94.3791 88.044C95.8223 81.2221 94.5027 74.448 90.8471 69.9374C88.1882 66.6607 84.5557 64.9128 80.3301 64.8765H80.3317Z" fill="#333333"/>
<path d="M76.6204 84.3456C69.0802 75.9191 61.1348 67.3971 53.4397 59.1567C35.0069 39.406 26.8209 31.9169 10.9531 10.2288L12.4654 9.1217C28.269 30.7192 36.4154 38.1671 54.8038 57.8849C62.4988 66.1318 70.4542 74.6605 78.0108 83.1018L76.6204 84.3456Z" fill="#333333"/>
<path d="M16.182 15.0639H14.3072C14.3072 13.9107 14.215 12.7575 14.1194 11.4396C13.8344 7.53523 13.5099 3.13007 15.3517 0L16.9678 0.960431C15.4225 3.59628 15.724 7.66702 15.9892 11.2979C16.0881 12.6554 16.182 13.9123 16.182 15.0639Z" fill="#333333"/>
<path d="M21.2146 20.4855H19.3398C19.3398 15.5532 19.3398 10.0805 20.0367 5.20911L21.8917 5.49246C21.2146 10.237 21.2146 15.7212 21.2146 20.4855Z" fill="#333333"/>
<path d="M25.288 26.645L23.5039 26.0734C24.349 23.4293 24.4792 20.5941 24.6175 17.5925C24.7658 14.3784 24.919 11.054 26.031 7.96179L27.7954 8.59769C26.7789 11.423 26.6422 14.4608 26.4906 17.6782C26.3539 20.6699 26.2106 23.7637 25.288 26.645Z" fill="#333333"/>
<path d="M6.12011 15.3175C4.07325 15.34 2.02756 15.2101 0 14.9287L0.276764 13.0737C3.47273 13.5531 6.87627 13.4592 10.148 13.367C11.4544 13.3307 12.9882 13.2928 14.1397 13.2928V15.1676C12.9865 15.1676 11.494 15.2055 10.2007 15.2417C8.8614 15.2796 7.48252 15.3175 6.12011 15.3175Z" fill="#333333"/>
<path d="M19.2232 21.3373C16.0322 20.8579 12.5133 20.9518 9.11471 21.0441C7.74242 21.0803 6.24822 21.1182 4.93359 21.1182V19.2435C6.25152 19.2435 7.70453 19.2056 9.06529 19.1693C12.5446 19.0754 16.1491 18.9799 19.4983 19.4823L19.2232 21.3373Z" fill="#333333"/>
<path d="M15.1008 27.3535C13.6659 27.3535 12.1734 27.3404 10.7632 27.3255C9.35303 27.3107 8.05817 27.2975 6.41406 27.2975V25.4277C8.06147 25.4277 9.37939 25.4426 10.7813 25.4557C14.9789 25.4986 19.3479 25.5414 23.6031 25.202L23.7678 27.0702C20.8783 27.2959 17.9805 27.3535 15.1008 27.3535Z" fill="#333333"/>
</svg>
