<svg width="288" height="292" viewBox="0 0 288 292" fill="none" xmlns="http://www.w3.org/2000/svg">
<path d="M80.7587 58.3706C139.815 9.96294 190.088 51.2103 232.437 99.0267C260.554 131.669 252.464 181.297 225.824 212.505C209.298 243.174 166.706 253.842 134.866 244.291C116.207 237.369 115.589 209.566 126.243 195.231C131.25 188.957 138.497 184.434 143.016 177.624C154.652 162.118 145.217 146.288 135.107 138.951C121.386 133.155 112.11 152.008 102.878 159.236C84.97 176.414 53.2671 191.889 35.7156 166.301C1.52442 123.796 47.2823 83.8588 80.7587 58.3706Z" fill="#FC7557"/>
<mask id="mask0_994_2798" style="mask-type:luminance" maskUnits="userSpaceOnUse" x="23" y="36" width="228" height="212">
<path d="M80.7587 58.3706C139.815 9.96294 190.088 51.2103 232.437 99.0267C260.554 131.669 252.464 181.297 225.824 212.505C209.298 243.174 166.706 253.842 134.866 244.291C116.207 237.369 115.589 209.566 126.243 195.231C131.25 188.957 138.497 184.434 143.016 177.624C154.652 162.118 145.217 146.288 135.107 138.951C121.386 133.155 112.11 152.008 102.878 159.236C84.97 176.414 53.2671 191.889 35.7156 166.301C1.52442 123.796 47.2823 83.8588 80.7587 58.3706Z" fill="white"/>
</mask>
<g mask="url(#mask0_994_2798)">
<path d="M143.989 260.907C173.56 237.949 196.153 207.21 209.237 172.134C213.771 159.91 217.055 146.791 215.022 133.788C212.624 118.589 203.055 105.647 193.793 93.348C185.892 82.7899 177.349 71.8404 165.265 66.5621C152.023 60.7849 136.727 62.8202 122.777 66.578C92.1307 74.9021 64.0812 90.8274 41.2279 112.878C23.045 130.465 8.63082 151.536 -5.65757 172.425" stroke="white" stroke-opacity="0.6" stroke-width="4" stroke-miterlimit="10"/>
<path d="M119.073 240.074C139.384 233.909 152.926 215.205 164.48 197.378C170.985 187.398 177.466 177.115 180.52 165.592C182.466 158.296 182.927 150.684 181.877 143.206C180.827 135.729 178.287 128.538 174.407 122.061C170.43 115.626 165.076 110.154 158.73 106.037C152.384 101.92 145.204 99.2614 137.708 98.2524C120.676 96.1831 103.578 103.459 90.2305 114.232C76.8831 125.005 66.7092 139.126 56.6983 153.038L31.1191 188.535" stroke="white" stroke-opacity="0.6" stroke-width="4" stroke-miterlimit="10"/>
</g>
</svg>
