<svg width="164" height="101" viewBox="0 0 164 101" fill="none" xmlns="http://www.w3.org/2000/svg">
<path d="M1.63702 84.9863C1.20904 84.6372 0.579112 84.7012 0.230043 85.1291C-0.119026 85.5571 -0.0550529 86.1871 0.37293 86.5361L1.63702 84.9863ZM78.9992 87.9928L79.6849 88.7207L78.9992 87.9928ZM76.2235 20.7952L76.5175 21.7511L76.2235 20.7952ZM103.604 69.0739L103.383 68.0985L103.604 69.0739ZM156.736 0.815605C156.363 0.408491 155.731 0.380992 155.324 0.754179L148.689 6.8357C148.282 7.20889 148.255 7.84146 148.628 8.24858C149.001 8.6557 149.633 8.6832 150.041 8.31001L155.938 2.90421L161.344 8.80144C161.717 9.20857 162.349 9.23607 162.757 8.86288C163.164 8.48968 163.191 7.85711 162.818 7.45L156.736 0.815605ZM0.37293 86.5361C8.06559 92.8104 22.5516 98.3326 37.6982 99.8331C52.8423 101.333 68.9435 98.84 79.6849 88.7207L78.3135 87.265C68.1797 96.8118 52.7809 99.3175 37.8954 97.8428C23.0122 96.3684 8.9388 90.9417 1.63702 84.9863L0.37293 86.5361ZM79.6849 88.7207C97.1397 72.277 102.416 53.3716 100.26 39.3708C99.1842 32.3808 96.2423 26.5609 91.9685 22.9428C87.6635 19.2983 82.072 17.9502 75.9296 19.8394L76.5175 21.7511C82.0059 20.063 86.8894 21.2633 90.6762 24.4692C94.4943 27.7015 97.2612 33.0342 98.2837 39.6752C100.325 52.9364 95.3587 71.2071 78.3135 87.265L79.6849 88.7207ZM75.9296 19.8394C69.0929 21.9421 64.9184 26.7701 63.1737 32.6488C61.4393 38.4929 62.1105 45.3371 64.829 51.5927C70.2829 64.1425 84.0712 74.5176 103.824 70.0492L103.383 68.0985C84.6683 72.332 71.7771 62.5629 66.6632 50.7955C64.0979 44.8924 63.5131 38.5347 65.091 33.2179C66.6587 27.9356 70.3648 23.6434 76.5175 21.7511L75.9296 19.8394ZM103.824 70.0492C113.563 67.8462 126.346 62.3727 136.957 51.6074C147.587 40.8231 155.988 24.7757 156.998 1.53477L155 1.44789C154.011 24.207 145.805 39.7812 135.533 50.2034C125.241 60.6446 112.826 65.9623 103.383 68.0985L103.824 70.0492Z" fill="#333333"/>
</svg>
