<svg width="24" height="25" viewBox="0 0 24 25" fill="none" xmlns="http://www.w3.org/2000/svg">
<path d="M0 12.5C0 5.89062 5.34375 0.5 12 0.5C18.6094 0.5 24 5.89062 24 12.5C24 19.1562 18.6094 24.5 12 24.5C5.34375 24.5 0 19.1562 0 12.5ZM17.3906 10.4375C17.9062 9.92188 17.9062 9.125 17.3906 8.60938C16.875 8.09375 16.0781 8.09375 15.5625 8.60938L10.5 13.6719L8.39062 11.6094C7.875 11.0938 7.07812 11.0938 6.5625 11.6094C6.04688 12.125 6.04688 12.9219 6.5625 13.4375L9.5625 16.4375C10.0781 16.9531 10.875 16.9531 11.3906 16.4375L17.3906 10.4375Z" fill="#FC7557"/>
</svg>
