<svg width="42" height="36" viewBox="0 0 42 36" fill="none" xmlns="http://www.w3.org/2000/svg">
<path d="M42 0V7.2H40.2175C37.9151 7.2 36.0955 7.56923 34.7586 8.30769C33.4218 9.04615 32.4191 10.2646 31.7507 11.9631C31.1565 13.5877 30.8594 15.7292 30.8594 18.3877V26.5846L27.9629 20.9354C28.4828 20.64 29.1883 20.4185 30.0796 20.2708C30.9708 20.0492 31.8992 19.9385 32.8647 19.9385C35.0928 19.9385 36.9496 20.64 38.435 22.0431C39.9947 23.3723 40.7745 25.2923 40.7745 27.8031C40.7745 30.1662 40.0318 32.1231 38.5464 33.6738C37.1353 35.2246 35.1671 36 32.6419 36C31.008 36 29.4854 35.6308 28.0743 34.8923C26.6631 34.08 25.4748 32.7508 24.5093 30.9046C23.618 28.9846 23.1724 26.3262 23.1724 22.9292V20.8246C23.1724 15.4338 23.878 11.2246 25.2891 8.19692C26.7003 5.16923 28.7056 3.06461 31.305 1.88307C33.9045 0.627691 37.0239 0 40.6631 0H42ZM18.8276 0V7.2H17.0451C14.7427 7.2 12.9231 7.56923 11.5862 8.30769C10.2493 9.04615 9.24668 10.2646 8.57825 11.9631C7.98408 13.5877 7.687 15.7292 7.687 18.3877V26.5846L4.79045 20.9354C5.31034 20.64 6.01591 20.4185 6.90716 20.2708C7.79841 20.0492 8.72679 19.9385 9.69231 19.9385C11.9204 19.9385 13.7772 20.64 15.2626 22.0431C16.8223 23.3723 17.6021 25.2923 17.6021 27.8031C17.6021 30.1662 16.8594 32.1231 15.374 33.6738C13.9629 35.2246 11.9947 36 9.46949 36C7.83554 36 6.313 35.6308 4.90186 34.8923C3.49072 34.08 2.30239 32.7508 1.33687 30.9046C0.445623 28.9846 0 26.3262 0 22.9292V20.8246C0 15.4338 0.70557 11.2246 2.11671 8.19692C3.52785 5.16923 5.53316 3.06461 8.13263 1.88307C10.7321 0.627691 13.8515 0 17.4907 0H18.8276Z" fill="#A6A6A6"/>
</svg>
