<svg width="47" height="48" viewBox="0 0 47 48" fill="none" xmlns="http://www.w3.org/2000/svg">
<path d="M23.3406 6.02783C19.9087 6.02667 16.5537 7.04327 13.6996 8.94904C10.8456 10.8548 8.62088 13.5642 7.30678 16.7344C5.99268 19.9047 5.64825 23.3934 6.31705 26.7594C6.98585 30.1254 8.63785 33.2175 11.0641 35.6446C13.4903 38.0717 16.5819 39.7247 19.9477 40.3946C23.3134 41.0646 26.8023 40.7213 29.973 39.4083C33.1437 38.0953 35.8538 35.8714 37.7605 33.0181C39.6673 30.1647 40.685 26.81 40.685 23.3781C40.6803 18.779 38.8517 14.3695 35.6001 11.1168C32.3486 7.8642 27.9397 6.03404 23.3406 6.02783ZM23.3406 38.1778C20.4116 38.1801 17.5477 37.3136 15.1112 35.6879C12.6748 34.0622 10.7753 31.7504 9.65312 29.0449C8.5309 26.3394 8.23637 23.3618 8.80679 20.4889C9.37722 17.616 10.787 14.9768 12.8577 12.9053C14.9284 10.8337 17.567 9.42296 20.4397 8.85139C23.3124 8.27983 26.2901 8.57318 28.996 9.69433C31.7019 10.8155 34.0145 12.714 35.6412 15.1498C37.2679 17.5856 38.1355 20.4491 38.1343 23.3781C38.1297 27.3008 36.5698 31.0616 33.7966 33.8359C31.0234 36.6102 27.2632 38.1716 23.3406 38.1778Z" fill="#FC7557"/>
<path d="M25.6829 13.2929C25.4702 12.7756 25.0931 12.3428 24.6098 12.0614C24.1264 11.78 23.5639 11.6657 23.009 11.7361C22.4542 11.8065 21.938 12.0577 21.5402 12.4509C21.1425 12.8441 20.8854 13.3573 20.8086 13.9113C20.7318 14.4653 20.8397 15.0292 21.1155 15.5157C21.3914 16.0022 21.8198 16.3843 22.3346 16.603C22.8494 16.8216 23.4219 16.8645 23.9635 16.7251C24.5052 16.5857 24.9858 16.2718 25.3311 15.8318C26.7393 16.2062 28.0146 16.9674 29.0125 18.0292C30.0105 19.0909 30.6913 20.4109 30.9778 21.8396C31.2643 23.2682 31.1452 24.7486 30.6338 26.1131C30.1225 27.4775 29.2393 28.6716 28.0844 29.56C26.9294 30.4485 25.5488 30.9959 24.0989 31.1402C22.6489 31.2846 21.1875 31.0201 19.8801 30.3768C18.5726 29.7335 17.4714 28.7369 16.7011 27.5001C15.9308 26.2632 15.5221 24.8354 15.5214 23.3783H12.9766C12.9767 25.3254 13.5258 27.233 14.5609 28.8822C15.596 30.5314 17.075 31.8553 18.8284 32.7021C20.5817 33.5489 22.5383 33.8841 24.4735 33.6694C26.4087 33.4547 28.2442 32.6987 29.7693 31.4882C31.2944 30.2777 32.4473 28.6618 33.0957 26.8258C33.7441 24.9898 33.8617 23.0082 33.435 21.1084C33.0084 19.2086 32.0547 17.4676 30.6835 16.0852C29.3123 14.7028 27.5792 13.735 25.6829 13.2929Z" fill="#FC7557"/>
<path d="M23.3387 0C17.3394 0.0101057 11.5736 2.3262 7.23437 6.46903C2.89516 10.6119 0.314687 16.2643 0.0269308 22.2567C-0.260825 28.2491 1.76616 34.1228 5.68844 38.6623C9.61073 43.2019 15.1281 46.0598 21.0988 46.6447C21.3563 47.1367 21.7687 47.5302 22.2723 47.7644C22.7758 47.9985 23.3425 48.0603 23.8846 47.9401C24.4268 47.82 24.9143 47.5246 25.2718 47.0997C25.6293 46.6747 25.8368 46.1439 25.8624 45.5891C25.888 45.0344 25.7301 44.4867 25.4132 44.0307C25.0963 43.5746 24.638 43.2357 24.1092 43.0662C23.5804 42.8967 23.0105 42.9061 22.4875 43.0929C21.9646 43.2798 21.5178 43.6337 21.2161 44.0999C17.207 43.6893 13.4031 42.1247 10.2653 39.5958C7.1275 37.0668 4.79058 33.682 3.53772 29.8517C2.28487 26.0213 2.16987 21.9098 3.20667 18.0154C4.24347 14.121 6.38756 10.6109 9.37908 7.91046C12.3706 5.21006 16.0811 3.4353 20.061 2.80125C24.0409 2.1672 28.1192 2.70109 31.8018 4.33821C35.4843 5.97534 38.613 8.64541 40.8086 12.0248C43.0042 15.4043 44.1726 19.348 44.172 23.3781H46.7168C46.7106 17.1797 44.2455 11.237 39.8626 6.85413C35.4797 2.47124 29.537 0.00620921 23.3387 0Z" fill="#FC7557"/>
</svg>
