<svg width="243" height="48" viewBox="0 0 243 48" fill="none" xmlns="http://www.w3.org/2000/svg">
<path d="M23.3406 6.02783C19.9087 6.02667 16.5537 7.04327 13.6996 8.94904C10.8456 10.8548 8.62088 13.5642 7.30678 16.7344C5.99268 19.9047 5.64825 23.3934 6.31705 26.7594C6.98585 30.1254 8.63785 33.2175 11.0641 35.6446C13.4903 38.0717 16.5819 39.7247 19.9477 40.3946C23.3134 41.0646 26.8023 40.7213 29.973 39.4083C33.1437 38.0953 35.8538 35.8714 37.7605 33.0181C39.6673 30.1647 40.685 26.81 40.685 23.3781C40.6803 18.779 38.8517 14.3695 35.6001 11.1168C32.3486 7.8642 27.9397 6.03404 23.3406 6.02783ZM23.3406 38.1778C20.4116 38.1801 17.5477 37.3136 15.1112 35.6879C12.6748 34.0622 10.7753 31.7504 9.65312 29.0449C8.5309 26.3394 8.23637 23.3618 8.80679 20.4889C9.37722 17.616 10.787 14.9768 12.8577 12.9053C14.9284 10.8337 17.567 9.42296 20.4397 8.85139C23.3124 8.27983 26.2901 8.57318 28.996 9.69433C31.7019 10.8155 34.0145 12.714 35.6412 15.1498C37.2679 17.5856 38.1355 20.4491 38.1343 23.3781C38.1297 27.3008 36.5698 31.0616 33.7966 33.8359C31.0234 36.6102 27.2632 38.1716 23.3406 38.1778Z" fill="#FC7557"/>
<path d="M25.6829 13.2929C25.4702 12.7756 25.0931 12.3428 24.6098 12.0614C24.1264 11.78 23.5639 11.6657 23.009 11.7361C22.4542 11.8065 21.938 12.0577 21.5402 12.4509C21.1425 12.8441 20.8854 13.3573 20.8086 13.9113C20.7318 14.4653 20.8397 15.0292 21.1155 15.5157C21.3914 16.0022 21.8198 16.3843 22.3346 16.603C22.8494 16.8216 23.4219 16.8645 23.9635 16.7251C24.5052 16.5857 24.9858 16.2718 25.3311 15.8318C26.7393 16.2062 28.0146 16.9674 29.0125 18.0292C30.0105 19.0909 30.6913 20.4109 30.9778 21.8396C31.2643 23.2682 31.1452 24.7486 30.6338 26.1131C30.1225 27.4775 29.2393 28.6716 28.0844 29.56C26.9294 30.4485 25.5488 30.9959 24.0989 31.1402C22.6489 31.2846 21.1875 31.0201 19.8801 30.3768C18.5726 29.7335 17.4714 28.7369 16.7011 27.5001C15.9308 26.2632 15.5221 24.8354 15.5214 23.3783H12.9766C12.9767 25.3254 13.5258 27.233 14.5609 28.8822C15.596 30.5314 17.075 31.8553 18.8284 32.7021C20.5817 33.5489 22.5383 33.8841 24.4735 33.6694C26.4087 33.4547 28.2442 32.6987 29.7693 31.4882C31.2944 30.2777 32.4473 28.6618 33.0957 26.8258C33.7441 24.9898 33.8617 23.0082 33.435 21.1084C33.0084 19.2086 32.0547 17.4676 30.6835 16.0852C29.3123 14.7028 27.5792 13.735 25.6829 13.2929Z" fill="#FC7557"/>
<path d="M23.3387 0C17.3394 0.0101057 11.5736 2.3262 7.23437 6.46903C2.89516 10.6119 0.314687 16.2643 0.0269308 22.2567C-0.260825 28.2491 1.76616 34.1228 5.68844 38.6623C9.61073 43.2019 15.1281 46.0598 21.0988 46.6447C21.3563 47.1367 21.7687 47.5302 22.2723 47.7644C22.7758 47.9985 23.3425 48.0603 23.8846 47.9401C24.4268 47.82 24.9143 47.5246 25.2718 47.0997C25.6293 46.6747 25.8368 46.1439 25.8624 45.5891C25.888 45.0344 25.7301 44.4867 25.4132 44.0307C25.0963 43.5746 24.638 43.2357 24.1092 43.0662C23.5804 42.8967 23.0105 42.9061 22.4875 43.0929C21.9646 43.2798 21.5178 43.6337 21.2161 44.0999C17.207 43.6893 13.4031 42.1247 10.2653 39.5958C7.1275 37.0668 4.79058 33.682 3.53772 29.8517C2.28487 26.0213 2.16987 21.9098 3.20667 18.0154C4.24347 14.121 6.38756 10.6109 9.37908 7.91046C12.3706 5.21006 16.0811 3.4353 20.061 2.80125C24.0409 2.1672 28.1192 2.70109 31.8018 4.33821C35.4843 5.97534 38.613 8.64541 40.8086 12.0248C43.0042 15.4043 44.1726 19.348 44.172 23.3781H46.7168C46.7106 17.1797 44.2455 11.237 39.8626 6.85413C35.4797 2.47124 29.537 0.00620921 23.3387 0Z" fill="#FC7557"/>
<path d="M58.6388 35V12.6H66.0628C67.6094 12.6 69.0548 12.8933 70.3988 13.48C71.7534 14.056 72.9428 14.8613 73.9668 15.896C75.0014 16.92 75.8068 18.1093 76.3828 19.464C76.9694 20.808 77.2628 22.2533 77.2628 23.8C77.2628 25.3467 76.9694 26.7973 76.3828 28.152C75.8068 29.496 75.0014 30.6853 73.9668 31.72C72.9428 32.744 71.7534 33.5493 70.3988 34.136C69.0548 34.712 67.6094 35 66.0628 35H58.6388ZM62.5428 31.096H66.0628C67.0548 31.096 67.9881 30.9093 68.8628 30.536C69.7481 30.152 70.5268 29.6293 71.1988 28.968C71.8708 28.296 72.3988 27.5227 72.7828 26.648C73.1668 25.7627 73.3588 24.8133 73.3588 23.8C73.3588 22.7867 73.1668 21.8427 72.7828 20.968C72.3988 20.0933 71.8708 19.32 71.1988 18.648C70.5268 17.976 69.7534 17.4533 68.8788 17.08C68.0041 16.696 67.0654 16.504 66.0628 16.504H62.5428V31.096ZM90.2888 35.416C88.7741 35.416 87.3501 35.1173 86.0168 34.52C84.6834 33.912 83.5101 33.0747 82.4968 32.008C81.4834 30.9413 80.6888 29.7093 80.1128 28.312C79.5368 26.904 79.2488 25.4 79.2488 23.8C79.2488 22.2 79.5368 20.7013 80.1128 19.304C80.6888 17.896 81.4834 16.6587 82.4968 15.592C83.5101 14.5253 84.6834 13.6933 86.0168 13.096C87.3501 12.488 88.7741 12.184 90.2888 12.184C91.8141 12.184 93.2434 12.488 94.5768 13.096C95.9101 13.6933 97.0834 14.5253 98.0968 15.592C99.1101 16.6587 99.8994 17.896 100.465 19.304C101.041 20.7013 101.329 22.2 101.329 23.8C101.329 25.4 101.041 26.904 100.465 28.312C99.8994 29.7093 99.1101 30.9413 98.0968 32.008C97.0834 33.0747 95.9101 33.912 94.5768 34.52C93.2434 35.1173 91.8141 35.416 90.2888 35.416ZM90.2888 31.512C91.2701 31.512 92.1928 31.3093 93.0568 30.904C93.9208 30.4987 94.6781 29.944 95.3288 29.24C95.9901 28.5253 96.5021 27.704 96.8648 26.776C97.2381 25.848 97.4248 24.856 97.4248 23.8C97.4248 22.744 97.2381 21.752 96.8648 20.824C96.4914 19.8853 95.9741 19.064 95.3128 18.36C94.6621 17.656 93.9048 17.1013 93.0408 16.696C92.1874 16.2907 91.2701 16.088 90.2888 16.088C89.3074 16.088 88.3848 16.2907 87.5208 16.696C86.6568 17.1013 85.8941 17.6613 85.2328 18.376C84.5821 19.08 84.0701 19.896 83.6968 20.824C83.3341 21.752 83.1528 22.744 83.1528 23.8C83.1528 24.8667 83.3394 25.864 83.7128 26.792C84.0861 27.72 84.5981 28.5413 85.2488 29.256C85.9101 29.96 86.6674 30.5147 87.5208 30.92C88.3848 31.3147 89.3074 31.512 90.2888 31.512ZM120.193 12.6V16.504H113.345V35H109.441V16.504H102.593V12.6H120.193ZM133.015 19H136.919V35H133.015L132.839 33.016C132.402 33.7307 131.821 34.312 131.095 34.76C130.381 35.1973 129.533 35.416 128.551 35.416C127.367 35.416 126.258 35.192 125.223 34.744C124.189 34.296 123.277 33.6773 122.487 32.888C121.709 32.0987 121.095 31.1867 120.647 30.152C120.21 29.1173 119.991 28.008 119.991 26.824C119.991 25.6827 120.199 24.6107 120.615 23.608C121.042 22.6053 121.634 21.7253 122.391 20.968C123.149 20.2107 124.023 19.6187 125.015 19.192C126.007 18.7653 127.074 18.552 128.215 18.552C129.271 18.552 130.215 18.7867 131.047 19.256C131.89 19.7253 132.605 20.3227 133.191 21.048L133.015 19ZM128.455 31.656C129.287 31.656 130.023 31.448 130.663 31.032C131.303 30.616 131.805 30.056 132.167 29.352C132.53 28.6373 132.711 27.8533 132.711 27C132.711 26.136 132.53 25.352 132.167 24.648C131.805 23.9333 131.298 23.368 130.647 22.952C130.007 22.536 129.277 22.328 128.455 22.328C127.634 22.328 126.882 22.5413 126.199 22.968C125.527 23.384 124.989 23.944 124.583 24.648C124.189 25.352 123.991 26.136 123.991 27C123.991 27.864 124.194 28.648 124.599 29.352C125.005 30.056 125.543 30.616 126.215 31.032C126.898 31.448 127.645 31.656 128.455 31.656ZM144.828 35.288C143.996 35.2347 143.19 35.0693 142.411 34.792C141.644 34.504 140.961 34.1147 140.364 33.624C139.766 33.1333 139.308 32.5467 138.988 31.864L142.284 30.456C142.412 30.6693 142.62 30.8987 142.908 31.144C143.196 31.3787 143.537 31.576 143.932 31.736C144.337 31.896 144.78 31.976 145.26 31.976C145.665 31.976 146.049 31.9227 146.411 31.816C146.785 31.6987 147.084 31.5227 147.308 31.288C147.542 31.0533 147.66 30.7493 147.66 30.376C147.66 29.9813 147.521 29.6773 147.244 29.464C146.977 29.24 146.636 29.0747 146.22 28.968C145.814 28.8507 145.42 28.744 145.036 28.648C144.022 28.4453 143.078 28.1307 142.204 27.704C141.34 27.2773 140.641 26.728 140.108 26.056C139.585 25.3733 139.324 24.552 139.324 23.592C139.324 22.536 139.601 21.624 140.156 20.856C140.721 20.088 141.452 19.496 142.348 19.08C143.254 18.664 144.23 18.456 145.276 18.456C146.545 18.456 147.708 18.7227 148.764 19.256C149.83 19.7787 150.673 20.52 151.292 21.48L148.204 23.304C148.054 23.048 147.846 22.8133 147.58 22.6C147.313 22.376 147.009 22.1947 146.668 22.056C146.326 21.9067 145.969 21.8213 145.596 21.8C145.116 21.7787 144.678 21.8213 144.284 21.928C143.889 22.0347 143.569 22.216 143.324 22.472C143.089 22.728 142.972 23.0693 142.972 23.496C142.972 23.9013 143.132 24.2053 143.452 24.408C143.772 24.6 144.156 24.7493 144.604 24.856C145.062 24.9627 145.5 25.08 145.916 25.208C146.854 25.5173 147.734 25.896 148.556 26.344C149.388 26.792 150.054 27.3413 150.556 27.992C151.057 28.6427 151.297 29.4213 151.276 30.328C151.276 31.3627 150.966 32.2693 150.348 33.048C149.729 33.816 148.929 34.4027 147.948 34.808C146.977 35.2133 145.937 35.3733 144.828 35.288ZM168.302 35H163.806L160.158 28.712L157.918 31.384V35H154.014V11H157.918V25.32L163.214 19H168.318L162.83 25.544L168.302 35Z" fill="#333333"/>
</svg>
