<svg width="88" height="88" viewBox="0 0 88 88" fill="none" xmlns="http://www.w3.org/2000/svg">
<rect width="88" height="88" rx="44" fill="#FC7557"/>
<path d="M37.9499 28.635C37.4386 27.3999 36.0906 26.7425 34.8024 27.0945L28.9589 28.6881C27.8035 29.0069 27 30.0561 27 31.2513C27 47.6795 40.3205 61 56.7487 61C57.9439 61 58.9931 60.1965 59.3119 59.0411L60.9055 53.1976C61.2575 51.9094 60.6001 50.5614 59.365 50.0501L52.9903 47.394C51.9079 46.9424 50.6529 47.2545 49.9158 48.1642L47.2331 51.4379C42.5583 49.2267 38.7733 45.4417 36.5621 40.7669L39.8358 38.0909C40.7455 37.3471 41.0576 36.0988 40.606 35.0164L37.9499 28.6417V28.635Z" fill="#333333"/>
</svg>
