<svg width="88" height="88" viewBox="0 0 88 88" fill="none" xmlns="http://www.w3.org/2000/svg">
<rect width="88" height="88" rx="44" fill="#31C5B7"/>
<path d="M61 37.4443V53.1C61 55.8067 58.8974 58 56.3026 58H31.6974C30.4515 58 29.2568 57.4838 28.3758 56.5648C27.4949 55.6459 27 54.3996 27 53.1V37.4443L43.4614 46.8896C43.7969 47.0819 44.204 47.0819 44.5386 46.8896L61 37.4433V37.4443ZM56.3026 30C57.5289 30.0001 58.7064 30.5004 59.5838 31.394C60.4612 32.2876 60.9688 33.5037 60.9982 34.7824L44 44.5357L27.0018 34.7815L27.0036 34.6975C27.0537 33.434 27.5701 32.2396 28.4449 31.3641C29.3197 30.4887 30.4851 29.9999 31.6974 30H56.3026Z" fill="#333333"/>
</svg>
