<svg width="1520" height="436" viewBox="0 0 1520 436" fill="none" xmlns="http://www.w3.org/2000/svg">
<g clip-path="url(#clip0_1727_6189)">
<rect width="1520" height="436" rx="64" fill="#31C5B7"/>
<g opacity="0.19">
<path d="M346.604 656.873C417.286 629.078 453.358 549.357 464.336 474.207C475.315 399.057 468.478 321.345 487.262 247.352C521.327 112.929 646.816 6.96827 784.964 -4.24465" stroke="white" stroke-width="5" stroke-miterlimit="10"/>
<path d="M197.493 612.17C250.897 609.336 288.271 558.628 310.204 510.002C378.497 357.506 376.484 176.636 468.477 37.5614C499.319 -8.47156 539.21 -47.7437 585.719 -77.8626C632.229 -107.982 684.383 -128.317 739.005 -137.63C741.772 -138.534 744.711 -138.783 747.591 -138.358C750.47 -137.932 753.212 -136.844 755.599 -135.179C759.728 -131.086 755.816 -121.896 750.723 -123.707" stroke="white" stroke-width="5" stroke-miterlimit="10"/>
<path d="M582.354 -214.187C402.486 -151.618 281.98 30.5602 254.32 218.973C243.275 294.069 244.6 371.708 219.821 443.381C195.042 515.054 134.378 582.055 58.4284 582.775" stroke="white" stroke-width="5" stroke-miterlimit="10"/>
<path d="M-86.5802 392.712C-60.054 403.169 -30.4343 388.374 -6.76027 372.282C91.8901 304.779 165.282 206.377 201.855 92.5752C227.275 12.789 233.802 -72.8303 266.491 -150.252C301.226 -231.066 362.542 -297.578 440.269 -338.758" stroke="white" stroke-width="5" stroke-miterlimit="10"/>
<path d="M-21.4528 193.613C11.4049 171.698 37.7441 141.328 54.7901 105.701C71.8361 70.0734 78.9579 30.5084 75.4051 -8.82666C72.5184 -36.8225 64.0646 -64.2808 64.3661 -92.4378C64.8656 -125.888 77.4892 -158.021 99.8922 -182.866" stroke="white" stroke-width="5" stroke-miterlimit="10"/>
</g>
<g opacity="0.19">
<path d="M1316.6 656.873C1387.29 629.078 1423.36 549.357 1434.34 474.207C1445.31 399.057 1438.48 321.345 1457.26 247.352C1491.33 112.929 1616.82 6.96827 1754.96 -4.24465" stroke="white" stroke-width="5" stroke-miterlimit="10"/>
<path d="M1167.49 612.17C1220.9 609.336 1258.27 558.628 1280.2 510.002C1348.5 357.506 1346.48 176.636 1438.48 37.5614C1469.32 -8.47156 1509.21 -47.7437 1555.72 -77.8626C1602.23 -107.982 1654.38 -128.317 1709.01 -137.63C1711.77 -138.534 1714.71 -138.783 1717.59 -138.358C1720.47 -137.932 1723.21 -136.844 1725.6 -135.179C1729.73 -131.086 1725.82 -121.896 1720.72 -123.707" stroke="white" stroke-width="5" stroke-miterlimit="10"/>
<path d="M1552.35 -214.187C1372.49 -151.618 1251.98 30.5602 1224.32 218.973C1213.28 294.069 1214.6 371.708 1189.82 443.381C1165.04 515.054 1104.38 582.055 1028.43 582.775" stroke="white" stroke-width="5" stroke-miterlimit="10"/>
<path d="M796.279 500.826C823.629 510.261 856.163 491.85 882.488 472.47C992.219 391.219 1077.49 278.083 1124.86 150.882C1157.84 61.7183 1171.21 -32.3997 1211.72 -119.526C1254.66 -210.515 1324.71 -287.868 1410.27 -338.758" stroke="white" stroke-width="5" stroke-miterlimit="10"/>
<path d="M699.743 502.318C757.989 448.902 811.398 384.946 854.341 317.187C897.285 249.428 928.174 180.374 943.754 117.3C954.333 72.5965 956.71 31.7007 971.91 -14.9416C990.169 -70.4268 1024.99 -130.096 1069.9 -182.866" stroke="white" stroke-width="5" stroke-miterlimit="10"/>
</g>
</g>
<rect x="1" y="1" width="1518" height="434" rx="63" stroke="#333333" stroke-width="2"/>
<defs>
<clipPath id="clip0_1727_6189">
<rect width="1520" height="436" rx="64" fill="white"/>
</clipPath>
</defs>
</svg>
