<svg width="22" height="22" viewBox="0 0 22 22" fill="none" xmlns="http://www.w3.org/2000/svg">
<path d="M10.1808 1.17038C10.5789 0.60165 11.4211 0.601649 11.8192 1.17038L13.497 3.56729C13.7199 3.88576 14.1072 4.04618 14.4901 3.97862L17.3713 3.47012C18.055 3.34946 18.6505 3.94505 18.5299 4.6287L18.0214 7.50994C17.9538 7.89277 18.1142 8.28006 18.4327 8.50298L20.8296 10.1808C21.3983 10.5789 21.3984 11.4211 20.8296 11.8192L18.4327 13.497C18.1142 13.7199 17.9538 14.1072 18.0214 14.4901L18.5299 17.3713C18.6505 18.055 18.055 18.6505 17.3713 18.5299L14.4901 18.0214C14.1072 17.9538 13.7199 18.1142 13.497 18.4327L11.8192 20.8296C11.4211 21.3983 10.5789 21.3984 10.1808 20.8296L8.50298 18.4327C8.28006 18.1142 7.89277 17.9538 7.50994 18.0214L4.6287 18.5299C3.94505 18.6505 3.34946 18.055 3.47012 17.3713L3.97862 14.4901C4.04618 14.1072 3.88576 13.7199 3.56729 13.497L1.17038 11.8192C0.60165 11.4211 0.601649 10.5789 1.17038 10.1808L3.56729 8.50298C3.88576 8.28006 4.04618 7.89277 3.97862 7.50994L3.47012 4.6287C3.34946 3.94505 3.94505 3.34946 4.6287 3.47012L7.50994 3.97862C7.89277 4.04618 8.28006 3.88576 8.50298 3.56729L10.1808 1.17038Z" fill="#00BCEE"/>
<path d="M8 11L10.25 13L14 9" stroke="white" stroke-width="1.5" stroke-linecap="round" stroke-linejoin="round"/>
</svg>
